<svg width="137" height="85" viewBox="0 0 137 85" fill="none" xmlns="http://www.w3.org/2000/svg">
<path d="M55.4 79.3667C51.0333 81.1222 46.6667 82 42.3 82C20.4667 82 3 64.4444 3 42.5C3 20.5556 20.4667 3 42.3 3C64.1333 3 81.6 20.5556 81.6 42.5C81.6 48.6444 79.8533 54.7889 77.2333 60.0556M82.4733 4.75556C85.9667 3.87778 90.3333 3 94.7 3C116.533 3 134 20.5556 134 42.5C134 64.4444 116.533 82 94.7 82C72.8667 82 55.4 64.4444 55.4 42.5C55.4 36.3556 57.1467 30.2111 59.7667 24.9444" stroke="#F1C453" stroke-width="5" stroke-linecap="round"/>
</svg>
